<?xml version="1.0" encoding="UTF-8"?>
<svg width="350px" height="32px" viewBox="0 0 350 32" version="1.1" xmlns="http://www.w3.org/2000/svg" xmlns:xlink="http://www.w3.org/1999/xlink">
    <title>Symbol of the Government of Canada - Symbole du Gouvernement du Canada</title>
    <g id="Page-1" stroke="none" stroke-width="1" fill="none" fill-rule="evenodd">
        <g id="Artboard" transform="translate(-20.000000, -25.000000)">
            <g id="logo_Eng" transform="translate(20.000000, 25.000000)">
                <rect id="frame" x="0" y="0" width="350" height="32"></rect>
                <path d="M0,0 L15.8854421,0 L15.8854421,32 L0,32 L0,0 Z M51.1145579,0 L67,0 L67,32 L51.1145579,32 L51.1145579,0 Z M31.2965633,6.65937875 L33.5646801,2.09038795 L35.815549,6.49300093 C36.0958296,6.9580056 36.3243661,6.91961072 36.772815,6.69777363 L38.7089072,5.75069991 L37.4498005,11.8981469 C37.1867679,13.1054526 37.8810014,13.4595387 38.635603,12.6404479 L41.395289,9.72243701 L42.1283305,11.3734169 C42.3741151,11.8725503 42.7449479,11.8000267 43.2365169,11.7104386 L46.0867551,11.117451 L45.129489,14.6796427 L45.129489,14.7564325 C45.0173768,15.2214371 44.7931523,15.609652 45.3192174,15.8357552 L46.3325396,16.3348887 L40.4337109,21.2536995 C39.8343416,21.8637515 40.0413181,22.0514598 40.2655425,22.7383016 L40.8088557,24.3892814 L35.3282919,23.4080789 C34.6513065,23.2417011 34.1812975,23.2417011 34.1640494,23.7792294 L34.3882739,29.9992001 L32.7410864,29.9992001 L32.9653109,23.7962938 C32.9653109,23.1862418 32.4953018,23.2033062 31.3871155,23.4294094 L26.3032565,24.3935475 L26.9586819,22.7425677 C27.1829064,22.1111852 27.2432746,21.6845754 26.7344575,21.2579656 L20.7450766,16.4074123 L21.853263,15.737635 C22.1723517,15.4944674 22.1895997,15.2385015 22.0214313,14.6967071 L20.8959969,11.0918544 L23.7850431,11.7019064 C24.5913889,11.8896147 24.8156133,11.7019064 25.0225898,11.2752966 L25.8289355,9.64138115 L28.6834856,12.7982936 C29.1879907,13.3912812 29.9037843,13.0030663 29.6795598,12.1498467 L28.3083408,5.48620184 L30.4298494,6.69350753 C30.7661861,6.89828023 31.1240829,6.9537395 31.3310593,6.5655246" id="Shape" fill="#FF0000" fill-rule="nonzero"></path>
                <path d="M106.259173,13.3834348 L104.780722,13.3834348 L104.430338,11.8465202 C103.191175,13.2394813 102.067382,13.6967452 100.456469,13.6967452 C96.5039648,13.6967452 94.1367353,10.5848108 94.1367353,6.85048955 C94.1367353,3.1161683 96.5039648,0 100.456469,0 C103.340729,0 105.759234,1.51997883 106.109618,4.46679016 L103.857759,4.46679016 C103.635564,2.74781688 102.12293,1.86716062 100.439377,1.86716062 C97.610666,1.86716062 96.4313242,4.33977243 96.4313242,6.84625562 C96.4313242,9.35273882 97.614939,11.8253506 100.439377,11.8253506 C102.802334,11.859222 104.097046,10.4535591 104.135503,8.2349828 L100.627388,8.2349828 L100.627388,6.49907383 L106.259173,6.49907383 L106.259173,13.3834348 Z M112.852377,11.9904737 C110.967994,11.9904737 110.134763,10.2969039 110.134763,8.64143953 C110.134763,6.98597513 110.967994,5.3093411 112.852377,5.3093411 C114.73676,5.3093411 115.569991,7.00291082 115.569991,8.64143953 C115.569991,10.2799682 114.73676,11.9904737 112.852377,11.9904737 Z M112.852377,13.6374702 C115.920375,13.6374702 117.676568,11.5501455 117.676568,8.64143953 C117.676568,5.73273353 115.916102,3.66234454 112.852377,3.66234454 C109.788652,3.66234454 108.028185,5.74966922 108.028185,8.64143953 C108.028185,11.5332098 109.784379,13.6417042 112.852377,13.6417042 L112.852377,13.6374702 Z M118.479888,3.92061392 L120.770204,3.92061392 L123.180164,11.186028 L123.21862,11.186028 L125.547393,3.91637999 L127.726612,3.91637999 L124.30823,13.3792008 L121.945273,13.3792008 L118.479888,3.92061392 Z M130.662147,7.81582429 C130.652942,7.15125112 130.914139,6.51098837 131.386832,6.03942951 C131.859525,5.56787066 132.503908,5.30472621 133.174658,5.3093411 C134.597559,5.3093411 135.503431,6.49907383 135.576071,7.81582429 L130.662147,7.81582429 Z M137.682649,9.1918497 C138.033033,6.3551204 136.187107,3.66234454 133.174658,3.66234454 C130.328855,3.66234454 128.555569,5.96983329 128.555569,8.65837523 C128.555569,11.5670812 130.239122,13.6374702 133.230207,13.6374702 C135.319693,13.6374702 137.075886,12.4858428 137.55446,10.4154538 L135.571798,10.4154538 C135.200049,11.4612331 134.465097,11.9904737 133.243026,11.9904737 C131.486832,11.9904737 130.679239,10.6737232 130.679239,9.18761577 L137.682649,9.1918497 Z M139.289289,3.92061392 L141.267677,3.92061392 L141.267677,5.74966922 L141.306134,5.74966922 C141.709148,4.54771699 142.819353,3.71719775 144.096389,3.66234454 C144.36237,3.65969444 144.628139,3.67809998 144.891162,3.71738555 L144.891162,5.73273353 C144.591382,5.68358002 144.28887,5.65247422 143.985291,5.63958719 C142.545298,5.63958719 141.40014,6.79121461 141.40014,8.8785393 L141.40014,13.3834348 L139.289289,13.3834348 L139.289289,3.92061392 Z M145.792761,3.92061392 L147.788241,3.92061392 L147.788241,5.31357502 L147.826698,5.35168034 C148.442781,4.29423219 149.585566,3.64718084 150.817782,3.65811061 C152.885903,3.65811061 154.197707,4.75469701 154.197707,6.88012702 L154.197707,13.3834348 L152.091129,13.3834348 L152.091129,7.4347711 C152.052673,5.95289759 151.463002,5.31780894 150.223838,5.31780894 C148.818029,5.31780894 147.912157,6.41439534 147.912157,7.80735644 L147.912157,13.3834348 L145.80558,13.3834348 L145.80558,3.92061392 L145.792761,3.92061392 Z M156.398291,3.92061392 L158.393771,3.92061392 L158.393771,5.23736438 L158.44932,5.23736438 C159.050699,4.20677946 160.185172,3.59809407 161.384856,3.66234454 C162.547105,3.66234454 163.640988,4.15771598 164.064012,5.23736438 C164.71418,4.22989085 165.848603,3.63253584 167.055097,3.66234454 C169.067669,3.66234454 170.251284,4.54300079 170.251284,6.84625562 L170.251284,13.3834348 L168.144706,13.3834348 L168.144706,7.85392961 C168.144706,6.35088648 168.050701,5.31357502 166.409877,5.31357502 C164.986976,5.31357502 164.37594,6.24927229 164.37594,7.85392961 L164.37594,13.4003705 L162.269362,13.4003705 L162.269362,7.30775337 C162.269362,6.00793861 161.842064,5.31357502 160.590082,5.31357502 C159.500472,5.31357502 158.500596,6.19423128 158.500596,7.7650172 L158.500596,13.3834348 L156.394018,13.3834348 L156.394018,3.92061392 L156.398291,3.92061392 Z M174.118329,7.81582429 C174.109124,7.15125112 174.370321,6.51098837 174.843014,6.03942951 C175.315706,5.56787066 175.960089,5.30472621 176.630839,5.3093411 C178.053741,5.3093411 178.959612,6.49907383 179.032253,7.81582429 L174.118329,7.81582429 Z M181.138831,9.1918497 C181.489215,6.3551204 179.643289,3.66234454 176.630839,3.66234454 C173.785036,3.66234454 172.011751,5.96983329 172.011751,8.65837523 C172.011751,11.5670812 173.691031,13.6374702 176.686388,13.6374702 C178.775874,13.6374702 180.532068,12.4858428 181.010641,10.4154538 L179.015161,10.4154538 C178.647685,11.4612331 177.90846,11.9904737 176.686388,11.9904737 C174.930194,11.9904737 174.122602,10.6737232 174.122602,9.18761577 L181.138831,9.1918497 Z M182.74547,3.92061392 L184.740951,3.92061392 L184.740951,5.31357502 L184.779408,5.35168034 C185.395491,4.29423219 186.538275,3.64718084 187.770492,3.65811061 C189.838613,3.65811061 191.150417,4.75469701 191.150417,6.88012702 L191.150417,13.3834348 L189.026747,13.3834348 L189.026747,7.4347711 C188.98829,5.95289759 188.398619,5.31780894 187.159456,5.31780894 C185.753646,5.31780894 184.847775,6.41439534 184.847775,7.80735644 L184.847775,13.3834348 L182.74547,13.3834348 L182.74547,3.92061392 Z M192.402399,3.92061392 L193.987674,3.92061392 L193.987674,1.0796507 L196.094252,1.0796507 L196.094252,3.91637999 L197.995727,3.91637999 L197.995727,5.47446414 L196.094252,5.47446414 L196.094252,10.5340037 C196.094252,11.3807886 196.166893,11.8338185 197.111221,11.8338185 C197.409542,11.845811 197.708193,11.8202024 198,11.7576078 L198,13.370733 C197.538518,13.4046044 197.094129,13.480815 196.632647,13.480815 C194.432064,13.480815 194.026131,12.6340302 193.987674,11.0632442 L193.987674,5.47446414 L192.402399,5.47446414 L192.402399,3.92061392 Z M98.8241916,30.2979624 C96.9398085,30.2979624 96.1065779,28.6043927 96.1065779,26.9489283 C96.1065779,25.2934639 96.9440815,23.6168298 98.8241916,23.6168298 C100.704302,23.6168298 101.541805,25.3103996 101.541805,26.9489283 C101.541805,28.587457 100.717121,30.2979624 98.8241916,30.2979624 Z M98.8241916,31.944959 C101.892189,31.944959 103.64411,29.8576343 103.64411,26.9489283 C103.64411,24.0402223 101.896462,21.9655994 98.8241916,21.9655994 C95.7519208,21.9655994 94,24.0529241 94,26.9446944 C94,29.8364647 95.7604667,31.944959 98.8241916,31.944959 L98.8241916,31.944959 Z M104.464522,22.2238687 L106.032705,22.2238687 L106.032705,21.4405927 C106.032705,19.023022 107.314598,18.6207992 108.673405,18.6207992 C109.169644,18.6016837 109.666342,18.6443564 110.151855,18.7478169 L110.151855,20.3778777 C109.832418,20.2963815 109.503088,20.2593321 109.173343,20.2677957 C108.600764,20.2677957 108.139283,20.4710241 108.139283,21.2543001 L108.139283,22.2238687 L109.933933,22.2238687 L109.933933,23.7819529 L108.139283,23.7819529 L108.139283,31.7036253 L106.032705,31.7036253 L106.032705,23.7819529 L104.464522,23.7819529 L104.464522,22.2238687 Z M125.564485,22.7742789 C125.175644,21.2712358 124.197132,20.1746494 122.274292,20.1746494 C119.445581,20.1746494 118.266239,22.6472612 118.266239,25.1537444 C118.266239,27.6602276 119.449854,30.1328394 122.274292,30.1328394 C124.325322,30.1328394 125.453388,28.6128605 125.637126,26.7075946 L127.880439,26.7075946 C127.696701,29.8364647 125.461934,32 122.265746,32 C118.313242,32 115.946013,28.8880656 115.946013,25.1537444 C115.946013,21.4194231 118.313242,18.3074888 122.265746,18.3074888 C125.256831,18.3074888 127.585603,19.9544853 127.863347,22.7742789 L125.555939,22.7742789 L125.564485,22.7742789 Z M135.597436,28.5070124 C135.597436,29.8237629 134.157443,30.3021963 133.230207,30.3021963 C132.490982,30.3021963 131.290275,30.0269913 131.290275,29.0955279 C131.290275,27.9989415 132.102141,27.6686954 132.999466,27.5205081 C133.896791,27.3723207 134.939398,27.3723207 135.584617,26.9531622 L135.597436,28.5070124 Z M137.704014,24.6964806 C137.704014,22.7023022 135.74699,21.9528976 133.858334,21.9528976 C131.751756,21.9528976 129.66227,22.6684308 129.516989,25.1029373 L131.623567,25.1029373 C131.726119,24.0825615 132.580714,23.6168298 133.747237,23.6168298 C134.601832,23.6168298 135.725626,23.8200582 135.725626,24.8870071 C135.725626,26.1148452 134.375365,25.9497221 132.862731,26.2249272 C131.089445,26.4239217 129.18797,26.8092088 129.18797,29.1886743 C129.18797,31.0388992 130.739061,31.9534268 132.456798,31.9534268 C133.664814,31.986697 134.842646,31.5765648 135.764082,30.8017994 C135.930728,31.6485843 136.541764,31.9534268 137.387814,31.9534268 C137.839193,31.931058 138.285807,31.8513737 138.71671,31.7163271 L138.71671,30.264091 C138.545639,30.2898078 138.372679,30.3011386 138.19968,30.2979624 C137.810839,30.2979624 137.699741,30.098968 137.699741,29.5824292 L137.704014,24.6964806 Z M139.972965,22.2238687 L141.981265,22.2238687 L141.981265,23.6168298 L142.019721,23.6549352 C142.635805,22.597487 143.778589,21.9504357 145.010806,21.9613654 C147.078927,21.9613654 148.390731,23.0579518 148.390731,25.1833818 L148.390731,31.7036253 L146.254242,31.7036253 L146.254242,25.7422599 C146.215785,24.2603863 145.626114,23.6252977 144.386951,23.6252977 C142.981141,23.6252977 142.07527,24.7218841 142.07527,26.1148452 L142.07527,31.7036253 L139.972965,31.7036253 L139.972965,22.2238687 Z M156.470931,28.5070124 C156.470931,29.8237629 155.030938,30.3021963 154.107975,30.3021963 C153.36875,30.3021963 152.168043,30.0269913 152.168043,29.0955279 C152.168043,27.9989415 152.979909,27.6686954 153.877234,27.5205081 C154.774559,27.3723207 155.817166,27.3723207 156.462385,26.9531622 L156.470931,28.5070124 Z M158.577509,24.6964806 C158.577509,22.7023022 156.620486,21.9528976 154.73183,21.9528976 C152.625252,21.9528976 150.540039,22.6684308 150.390484,25.1029373 L152.497062,25.1029373 C152.591068,24.0783276 153.420025,23.6041281 154.60364,23.6041281 C155.458236,23.6041281 156.582029,23.8073564 156.582029,24.8743054 C156.582029,26.1021434 155.231768,25.9370204 153.719134,26.2122255 C151.945848,26.4112199 150.044373,26.796507 150.044373,29.1759725 C150.044373,31.0261974 151.595464,31.9407251 153.313201,31.9407251 C154.521217,31.9739952 155.69905,31.563863 156.620486,30.7890976 C156.787132,31.6358825 157.398168,31.9407251 158.244217,31.9407251 C158.695596,31.9183562 159.142211,31.8386719 159.573113,31.7036253 L159.573113,30.264091 C159.40204,30.2897877 159.229081,30.3011184 159.056083,30.2979624 C158.667242,30.2979624 158.556144,30.098968 158.556144,29.5824292 L158.577509,24.6964806 Z M162.491557,27.0463085 C162.491557,25.3527388 163.192325,23.6041281 165.170714,23.6041281 C166.794445,23.6041281 167.811414,24.8489018 167.811414,26.9362265 C167.811414,28.5832231 167.01664,30.2852607 165.132257,30.2852607 C163.247874,30.2852607 162.491557,28.6890712 162.491557,27.0463085 Z M169.849624,18.6207992 L167.743046,18.6207992 L167.743046,23.4517068 L167.704589,23.4517068 C167.05937,22.4101614 165.726201,21.9698333 164.525494,21.9698333 C162.436008,21.9698333 160.389252,23.4686425 160.389252,26.8938873 C160.389252,29.7306166 161.846337,31.944959 164.858786,31.944959 C166.059493,31.944959 167.2602,31.4876952 167.815687,30.4080445 L167.854144,30.4080445 L167.854144,31.6782218 L169.849624,31.6782218 L169.849624,18.6207992 L169.849624,18.6207992 Z M178.032376,28.5070124 C178.032376,29.8237629 176.592383,30.3021963 175.665146,30.3021963 C174.925921,30.3021963 173.725215,30.0269913 173.725215,29.0955279 C173.725215,27.9989415 174.53708,27.6686954 175.434406,27.5205081 C176.331731,27.3723207 177.374337,27.3723207 178.019557,26.9531622 L178.032376,28.5070124 Z M180.138954,24.6964806 C180.138954,22.7023022 178.18193,21.9528976 176.293274,21.9528976 C174.186696,21.9528976 172.09721,22.6684308 171.951929,25.1029373 L174.058507,25.1029373 C174.152512,24.0783276 174.98147,23.6041281 176.165085,23.6041281 C177.01968,23.6041281 178.143473,23.8073564 178.143473,24.8743054 C178.143473,26.1021434 176.793213,25.9370204 175.280578,26.2122255 C173.507293,26.4112199 171.605818,26.796507 171.605818,29.1759725 C171.605818,31.0261974 173.156909,31.9407251 174.874646,31.9407251 C176.082725,31.9743973 177.260699,31.564216 178.18193,30.7890976 C178.348576,31.6358825 178.959612,31.9407251 179.805662,31.9407251 C180.257046,31.9184028 180.703666,31.8387174 181.134558,31.7036253 L181.134558,30.264091 C180.963487,30.2898078 180.790526,30.3011386 180.617527,30.2979624 C180.228686,30.2979624 180.117589,30.098968 180.117589,29.5824292 L180.138954,24.6964806 Z" id="Shape" fill="#000000" fill-rule="nonzero"></path>
                <path d="M238.170009,13.3774309 L236.697557,13.3774309 L236.3496,11.8407197 C235.11902,13.2334965 234.003011,13.6906998 232.403258,13.6906998 C228.478133,13.6906998 226.127301,10.5791771 226.127301,6.84534991 C226.127301,3.11152269 228.482376,0 232.407501,0 C235.271782,0 237.673534,1.52401111 238.021491,4.48736605 L235.78523,4.48736605 C235.564575,2.76862019 234.062419,1.88808043 232.390528,1.88808043 C229.581411,1.88808043 228.410239,4.36036513 228.410239,6.86651674 C228.410239,9.37266834 229.585655,11.844953 232.390528,11.844953 C234.737116,11.8830533 236.022859,10.473343 236.06105,8.25929356 L232.577236,8.25929356 L232.577236,6.49821405 L238.153035,6.49821405 L238.153035,13.3774309 L238.170009,13.3774309 Z M244.717542,11.9888874 C242.846212,11.9888874 242.018753,10.2955417 242.018753,8.64029634 C242.018753,6.98505093 242.846212,5.30863871 244.717542,5.30863871 C246.588871,5.30863871 247.41633,7.00198439 247.41633,8.64029634 C247.41633,10.2786083 246.588871,11.9888874 244.717542,11.9888874 Z M244.717542,13.6356661 C247.764287,13.6356661 249.508316,11.5486175 249.508316,8.64029634 C249.508316,5.73197513 247.764287,3.64069321 244.717542,3.64069321 C241.670796,3.64069321 239.931011,5.75737531 239.931011,8.64029634 C239.931011,11.5232174 241.675039,13.6356661 244.717542,13.6356661 Z M259.582096,13.3774309 L257.528301,13.3774309 L257.528301,12.065088 L257.49011,12.065088 C256.928178,13.0244607 255.904958,13.6215354 254.791322,13.6398995 C252.313189,13.6398995 251.252344,12.3952904 251.252344,9.92300569 L251.252344,3.91586189 L253.34433,3.91586189 L253.34433,9.71980421 C253.34433,11.3877497 254.02327,11.9888874 255.160496,11.9888874 C256.904524,11.9888874 257.49011,10.8755126 257.49011,9.40653526 L257.49011,3.90316179 L259.582096,3.90316179 L259.582096,13.3774309 L259.582096,13.3774309 Z M260.846622,3.91586189 L263.121073,3.91586189 L265.522825,11.1845482 L265.552529,11.1845482 L267.86517,3.91586189 L270.029293,3.91586189 L266.63459,13.3774309 L264.279515,13.3774309 L260.846622,3.91586189 Z M272.936007,7.81479032 C272.926866,7.15030506 273.186254,6.51012701 273.655672,6.03863054 C274.125091,5.56713407 274.76501,5.30402444 275.431114,5.30863871 C276.844159,5.30863871 277.743755,6.49821405 277.815892,7.81479032 L272.936007,7.81479032 Z M279.907878,9.18640032 C280.260078,6.3500463 278.422695,3.64069321 275.431114,3.64069321 C272.605024,3.64069321 270.844022,5.9478767 270.844022,8.63606297 C270.844022,11.5443842 272.511669,13.6144993 275.486277,13.6144993 C277.557046,13.6144993 279.305318,12.4630242 279.780576,10.3929091 L277.798919,10.3929091 C277.433988,11.4385501 276.699884,11.9677206 275.486277,11.9677206 C273.742249,11.9677206 272.94025,10.6511443 272.94025,9.1652335 L279.907878,9.18640032 Z M281.507631,3.91586189 L283.472315,3.91586189 L283.472315,5.75737531 L283.506262,5.75737531 C283.89747,4.54465112 285.001637,3.70118996 286.277188,3.64069321 C286.541324,3.63815117 286.805244,3.65655367 287.066457,3.69572695 L287.066457,5.71080831 C286.768767,5.66155783 286.468344,5.63045549 286.166861,5.6176743 C284.736842,5.6176743 283.599617,6.76914936 283.599617,8.85619791 L283.599617,13.3774309 L281.507631,13.3774309 L281.507631,3.91586189 Z M287.96181,3.91586189 L289.943467,3.91586189 L289.943467,5.30863871 L289.981658,5.34673899 C290.593473,4.28943073 291.728342,3.64246498 292.952022,3.65339331 C295.010061,3.65339331 296.308535,4.74983463 296.308535,6.87498346 L296.308535,13.3774309 L294.216549,13.3774309 L294.216549,7.45072099 C294.182602,5.96904352 293.592773,5.33403889 292.362193,5.33403889 C290.966121,5.33403889 290.070769,6.43048022 290.070769,7.82325704 L290.070769,13.3774309 L287.978783,13.3774309 L287.96181,3.91586189 Z M300.127575,7.81479032 C300.118434,7.15030506 300.377822,6.51012701 300.84724,6.03863054 C301.316659,5.56713407 301.956578,5.30402444 302.622682,5.30863871 C304.035727,5.30863871 304.935323,6.49821405 305.00746,7.81479032 L300.127575,7.81479032 Z M307.099446,9.18640032 C307.447403,6.3500463 305.614263,3.64069321 302.622682,3.64069321 C299.796592,3.64069321 298.03559,5.9478767 298.03559,8.63606297 C298.03559,11.5443842 299.707481,13.6144993 302.677845,13.6144993 C304.752857,13.6144993 306.496886,12.4630242 306.972144,10.3929091 L304.990487,10.3929091 C304.621313,11.4385501 303.887208,11.9677206 302.677845,11.9677206 C300.933817,11.9677206 300.131818,10.6511443 300.131818,9.1652335 L307.099446,9.18640032 Z M308.694956,3.91586189 L310.676614,3.91586189 L310.676614,5.23243815 L310.731777,5.23243815 C311.324487,4.19546526 312.451993,3.57982948 313.646978,3.64069321 C314.805421,3.64069321 315.887482,4.13599682 316.307576,5.2155047 C316.95324,4.20816444 318.079805,3.61088846 319.277941,3.64069321 C321.276572,3.64069321 322.451988,4.52123297 322.451988,6.82418309 L322.451988,13.3774309 L320.360003,13.3774309 L320.360003,7.87405742 C320.360003,6.37121312 320.266648,5.33403889 318.637191,5.33403889 C317.224146,5.33403889 316.617343,6.26961238 316.617343,7.87405742 L316.617343,13.3774309 L314.525358,13.3774309 L314.525358,7.30255325 C314.525358,6.00291044 314.10102,5.30863871 312.85771,5.30863871 C311.775648,5.30863871 310.786941,6.18917846 310.786941,7.75975658 L310.786941,13.3774309 L308.694956,13.3774309 L308.694956,3.91586189 Z M326.292246,7.81479032 C326.283137,7.15178091 326.541367,6.51290994 327.008939,6.04166547 C327.476511,5.57042101 328.114229,5.30630564 328.778865,5.30862338 C330.19191,5.30862338 331.091506,6.49821405 331.163644,7.81479032 L326.292246,7.81479032 Z M333.264116,9.18640032 C333.612073,6.3500463 331.77469,3.64069321 328.778865,3.64069321 C325.952775,3.64069321 324.191773,5.9478767 324.191773,8.63606297 C324.191773,11.5443842 325.859421,13.6144993 328.834029,13.6144993 C330.904798,13.6144993 332.65307,12.4630242 333.128328,10.3929091 L331.14667,10.3929091 C330.78174,11.4385501 330.047635,11.9677206 328.834029,11.9677206 C327.090001,11.9677206 326.288002,10.6511443 326.288002,9.1652335 L333.264116,9.18640032 Z M334.859626,3.91586189 L336.841284,3.91586189 L336.841284,5.30863871 L336.879474,5.34673899 C337.49129,4.28943073 338.626158,3.64246498 339.849839,3.65339331 C341.907878,3.65339331 343.206351,4.74983463 343.206351,6.87498346 L343.206351,13.3774309 L341.084662,13.3774309 L341.084662,7.45072099 C341.050715,5.96904352 340.460886,5.33403889 339.230306,5.33403889 C337.834234,5.33403889 336.934638,6.43048022 336.934638,7.82325704 L336.934638,13.3774309 L334.842653,13.3774309 L334.859626,3.91586189 Z M344.436931,3.91586189 L346.015468,3.91586189 L346.015468,1.10067469 L348.107453,1.10067469 L348.107453,3.93702871 L349.995757,3.93702871 L349.995757,5.49490673 L348.107453,5.49490673 L348.107453,10.5283768 C348.107453,11.3750496 348.179591,11.8280196 349.117377,11.8280196 C349.413437,11.8405945 349.709916,11.8164202 350,11.7560524 L350,13.3774309 C349.541715,13.4112978 349.100404,13.4874983 348.642119,13.4874983 C346.461023,13.4874983 346.057902,12.6408255 346.019711,11.0702474 L346.019711,5.47373991 L344.441174,5.47373991 L344.441174,3.91586189 L344.436931,3.91586189 Z M228.079255,27.0554306 C228.079255,25.3620849 228.775169,23.6137055 230.739854,23.6137055 C232.352337,23.6137055 233.362261,24.8583146 233.362261,26.9453631 C233.362261,28.5921418 232.572993,30.2939542 230.701663,30.2939542 C228.830333,30.2939542 228.079255,28.6810425 228.079255,27.0554306 Z M235.382109,18.6141024 L233.302854,18.6141024 L233.302854,23.4486043 L233.264664,23.4486043 C232.623913,22.4071967 231.299979,21.9669268 230.111834,21.9669268 C228.036822,21.9669268 226,23.4655378 226,26.8903294 C226,29.7266834 227.451235,31.9407329 230.438574,31.9407329 C231.630963,31.9407329 232.823352,31.4835296 233.374991,30.4040217 L233.408938,30.4040217 L233.408938,31.674031 L235.390596,31.674031 L235.390596,18.6141024 L235.382109,18.6141024 Z M245.986312,31.686731 L243.9113,31.686731 L243.9113,30.3659214 L243.9113,30.3659214 C243.349367,31.3252941 242.326147,31.9223689 241.212511,31.9407329 C238.734378,31.9407329 237.673534,30.6961238 237.673534,28.2238391 L237.673534,22.2209287 L239.765519,22.2209287 L239.765519,28.0206377 C239.765519,29.6885831 240.44446,30.2897209 241.581685,30.2897209 C243.325714,30.2897209 243.9113,29.1763461 243.9113,27.7073687 L243.9113,22.2039952 L246.003285,22.2039952 L246.003285,31.686731 L245.986312,31.686731 Z M262.425159,22.771266 C262.039012,21.2684217 261.067278,20.1719804 259.157758,20.1719804 C256.348641,20.1719804 255.177469,22.6442651 255.177469,25.1504167 C255.177469,27.6565683 256.352885,30.128853 259.157758,30.128853 C261.194579,30.128853 262.310588,28.6133086 262.497297,26.7082947 L264.7378,26.7082947 C264.555335,29.8367509 262.336048,32 259.162001,32 C255.236876,32 252.886045,28.8884773 252.886045,25.1546501 C252.886045,21.4208229 255.232633,18.3093002 259.162001,18.3093002 C262.132366,18.3093002 264.445007,19.9560788 264.720827,22.7754994 L262.425159,22.7754994 L262.425159,22.771266 Z M272.388611,28.4990078 C272.388611,29.8155841 270.958593,30.2939542 270.042023,30.2939542 C269.307919,30.2939542 268.115529,30.0187856 268.115529,29.0874454 C268.115529,27.9910041 268.921771,27.6608017 269.812881,27.5126339 C270.70399,27.3644662 271.739374,27.3644662 272.380125,26.9453631 L272.380125,28.5032412 L272.388611,28.4990078 Z M274.480597,24.68898 C274.480597,22.6950655 272.53713,21.9415267 270.661556,21.9415267 C268.569571,21.9415267 266.498802,22.6569652 266.350284,25.0911496 L268.44227,25.0911496 C268.535624,24.0666755 269.363083,23.5883053 270.534255,23.5883053 C271.382931,23.5883053 272.498939,23.7915068 272.498939,24.8583146 C272.498939,26.0859902 271.158032,25.920889 269.655876,26.1960577 C267.894874,26.3950258 266.00657,26.7802619 266.00657,29.1594126 C266.00657,31.0093928 267.546917,31.9237994 269.252755,31.9237994 C270.452466,31.9574673 271.622279,31.5473402 272.53713,30.7723244 C272.702621,31.6189972 273.309424,31.9237994 274.153857,31.9237994 C274.602104,31.9013871 275.045618,31.8217144 275.473547,31.686731 L275.473547,30.2600873 C275.303655,30.2857405 275.131898,30.2970695 274.960099,30.2939542 C274.573951,30.2939542 274.463623,30.0949861 274.463623,29.5785157 L274.463623,24.7101468 L274.480597,24.68898 Z M276.733831,22.2209287 L278.707002,22.2209287 L278.707002,23.6137055 L278.745192,23.6518058 C279.357008,22.5944975 280.491876,21.9475318 281.715557,21.9584601 C283.773595,21.9584601 285.072069,23.0549014 285.072069,25.1800503 L285.072069,31.686731 L282.980083,31.686731 L282.980083,25.734621 C282.946136,24.2529435 282.356307,23.6179389 281.125727,23.6179389 C279.729656,23.6179389 278.834303,24.7143802 278.834303,26.107157 L278.834303,31.686731 L276.742317,31.686731 L276.733831,22.2209287 Z M293.134488,28.4990078 C293.134488,29.8155841 291.704469,30.2939542 290.783656,30.2939542 C290.049552,30.2939542 288.857162,30.0187856 288.857162,29.0874454 C288.857162,27.9910041 289.663404,27.6608017 290.554514,27.5126339 C291.445623,27.3644662 292.476764,27.3475327 293.134488,26.9241963 L293.134488,28.4820743 L293.134488,28.4990078 Z M295.226473,24.68898 C295.226473,22.6950655 293.283006,21.9415267 291.42865,21.9415267 C289.336664,21.9415267 287.261652,22.6569652 287.117377,25.0911496 L289.209363,25.0911496 C289.302717,24.0666755 290.125933,23.5883053 291.301348,23.5883053 C292.150024,23.5883053 293.261789,23.7915068 293.261789,24.8583146 C293.261789,26.0859902 291.920882,25.920889 290.418726,26.1960577 C288.657724,26.3950258 286.765177,26.7802619 286.765177,29.1594126 C286.765177,31.0093928 288.309767,31.9237994 290.011361,31.9237994 C291.211072,31.9574673 292.380886,31.5473402 293.295736,30.7723244 C293.461228,31.6189972 294.068031,31.9237994 294.912463,31.9237994 C295.360731,31.9015734 295.80427,31.8218964 296.232154,31.686731 L296.232154,30.2600873 C296.06227,30.2858208 295.890506,30.2971503 295.718705,30.2939542 C295.332558,30.2939542 295.22223,30.0949861 295.22223,29.5785157 L295.22223,24.7101468 L295.226473,24.68898 Z M299.100678,27.0554306 C299.100678,25.3620849 299.796592,23.6137055 301.761276,23.6137055 C303.373759,23.6137055 304.383684,24.8583146 304.383684,26.9453631 C304.383684,28.5921418 303.594415,30.2939542 301.723085,30.2939542 C299.851756,30.2939542 299.100678,28.6810425 299.100678,27.0554306 Z M306.403532,18.6183358 L304.311546,18.6183358 L304.311546,23.4486043 L304.273356,23.4486043 C303.632606,22.4071967 302.312915,21.9669268 301.120526,21.9669268 C299.045514,21.9669268 297.012935,23.4655378 297.012935,26.8903294 C297.012935,29.7266834 298.464171,31.9407329 301.451509,31.9407329 C302.643898,31.9407329 303.836288,31.4835296 304.387927,30.4040217 L304.426117,30.4040217 L304.426117,31.674031 L306.407775,31.674031 L306.407775,18.6141024 L306.403532,18.6183358 Z M314.529601,28.4990078 C314.529601,29.8155841 313.099583,30.2939542 312.183013,30.2939542 C311.448908,30.2939542 310.256519,30.0187856 310.256519,29.0874454 C310.256519,27.9910041 311.062761,27.6608017 311.95387,27.5126339 C312.84498,27.3644662 313.880364,27.3644662 314.521114,26.9453631 L314.521114,28.5032412 L314.529601,28.4990078 Z M316.621586,24.68898 C316.621586,22.6950655 314.678119,21.9415267 312.823763,21.9415267 C310.731777,21.9415267 308.656765,22.6569652 308.512491,25.0911496 L310.604476,25.0911496 C310.69783,24.0666755 311.521046,23.5883053 312.696462,23.5883053 C313.545137,23.5883053 314.656902,23.7915068 314.656902,24.8583146 C314.656902,26.0859902 313.315995,25.920889 311.813839,26.1960577 C310.052837,26.3950258 308.16029,26.7802619 308.16029,29.1594126 C308.16029,31.0093928 309.70488,31.9237994 311.406475,31.9237994 C312.606123,31.9570652 313.775796,31.5469872 314.690849,30.7723244 C314.856341,31.6189972 315.463144,31.9237994 316.303333,31.9237994 C316.751596,31.9015267 317.195129,31.8218508 317.623024,31.686731 L317.623024,30.2600873 C317.453138,30.2858006 317.281376,30.29713 317.109575,30.2939542 C316.723428,30.2939542 316.6131,30.0949861 316.6131,29.5785157 L316.6131,24.7101468 L316.621586,24.68898 Z" id="Shape" fill="#000000" fill-rule="nonzero"></path>
            </g>
        </g>
    </g>
</svg>
