<?xml version="1.0" encoding="UTF-8"?>
<svg width="533px" height="526px" viewBox="0 0 533 526" version="1.1" xmlns="http://www.w3.org/2000/svg" xmlns:xlink="http://www.w3.org/1999/xlink">
    <title>0297B2E9-D478-4DFF-9CB1-A174CF1AE99D</title>
    <g id="➡️-Login-Flows-(WIP)" stroke="none" stroke-width="1" fill="none" fill-rule="evenodd">
        <g id="1.1-Register---enter-info" transform="translate(-166.000000, -341.000000)">
            <rect fill="#FFFFFF" x="0" y="0" width="1440" height="1368"></rect>
            <g id="Illustration/Sign-in" transform="translate(166.000000, 341.000000)">
                <path d="M348.783034,165.50865 C341.580706,129.014739 355.698948,104.755521 334.321296,80.1306881 C311.767085,54.1461375 272.547472,54.0987182 260.171472,54.0775272 C243.906647,54.0634746 205.139487,56.852177 134.108248,111.345289 C66.8804512,162.924666 33.2616241,188.703285 18.7570193,234.649513 C-6.0411756,313.206593 31.1197534,412.513465 96.968715,450.114929 C138.238729,473.682626 149.405545,449.357961 265.733944,458.11758 C372.222545,466.13807 445.468292,492.726344 488.454162,460.389642 C514.605338,440.721377 522.199725,415.055809 522.199725,415.055809 C522.199725,415.055809 527.290972,397.879762 523.918109,378.131757 C511.459723,305.219179 368.047988,263.047194 348.783034,165.50865" id="Fill-1" fill="#FE3146" opacity="0.15"></path>
                <g id="Web" transform="translate(212.571429, 4.202941)">
                    <rect id="Container" fill="#EBEFF2" x="0.928571429" y="0.797058824" width="269" height="309" rx="8"></rect>
                    <path d="M8.92857143,0.797058824 L261.928571,0.797058824 C266.346849,0.797058824 269.928571,4.37878082 269.928571,8.79705882 L269.928571,22.7970588 L269.928571,22.7970588 L0.928571429,22.7970588 L0.928571429,8.79705882 C0.928571429,4.37878082 4.51029343,0.797058824 8.92857143,0.797058824 Z" id="Header" fill="#C5CFD6"></path>
                    <circle id="buttons" fill="#F2F2F2" cx="13.9285714" cy="14.7970588" r="4"></circle>
                    <circle id="buttons" fill="#F2F2F2" cx="25.9285714" cy="14.7970588" r="4"></circle>
                    <circle id="buttons" fill="#F2F2F2" cx="37.9285714" cy="14.7970588" r="4"></circle>
                    <rect id="Container" fill="#FFFFFF" x="16.9285714" y="122.49031" width="237" height="36.6196319" rx="4"></rect>
                    <rect id="Label-Copy-14" fill="#DDE3E9" x="219.51273" y="128.801353" width="28.1584158" height="5.49294479" rx="2.74647239"></rect>
                    <rect id="Label" fill="#DDE3E9" x="44.3048091" y="133.4762" width="130.623762" height="5.49294479" rx="2.74647239"></rect>
                    <rect id="Label-Copy-11" fill="#DDE3E9" x="23.9681754" y="133.4762" width="12.5148515" height="5.49294479" rx="2.74647239"></rect>
                    <rect id="Label" fill="#DDE3E9" x="44.3048091" y="142.631108" width="87.6789638" height="5.49294479" rx="2.74647239"></rect>
                    <rect id="Container-Copy-3" fill="#FFFFFF" x="16.9285714" y="43.7970588" width="112.633663" height="17.9202454" rx="4"></rect>
                    <rect id="Label-Copy-8" fill="#DDE3E9" x="98.2751061" y="50.1081018" width="23.4653465" height="5.49294479" rx="2.74647239"></rect>
                    <rect id="Label-Copy-15" fill="#DDE3E9" x="23.9681754" y="50.1081018" width="58.6633663" height="5.49294479" rx="2.74647239"></rect>
                    <rect id="Container-Copy-3" fill="#FFFFFF" x="141.294908" y="43.7970588" width="112.633663" height="17.9202454" rx="4"></rect>
                    <rect id="Label-Copy-8" fill="#DDE3E9" x="222.641443" y="50.1081018" width="23.4653465" height="5.49294479" rx="2.74647239"></rect>
                    <rect id="Label-Copy-15" fill="#DDE3E9" x="148.334512" y="50.1081018" width="58.6633663" height="5.49294479" rx="2.74647239"></rect>
                    <rect id="Container-Copy-3" fill="#FFFFFF" x="16.9285714" y="67.9504331" width="112.633663" height="17.9202454" rx="4"></rect>
                    <rect id="Label-Copy-8" fill="#DDE3E9" x="98.2751061" y="74.261476" width="23.4653465" height="5.49294479" rx="2.74647239"></rect>
                    <rect id="Label-Copy-15" fill="#DDE3E9" x="23.9681754" y="74.261476" width="58.6633663" height="5.49294479" rx="2.74647239"></rect>
                    <rect id="Container-Copy-3" fill="#FFFFFF" x="141.294908" y="67.9504331" width="112.633663" height="17.9202454" rx="4"></rect>
                    <rect id="Label-Copy-8" fill="#DDE3E9" x="222.641443" y="74.261476" width="23.4653465" height="5.49294479" rx="2.74647239"></rect>
                    <rect id="Label-Copy-15" fill="#DDE3E9" x="148.334512" y="74.261476" width="58.6633663" height="5.49294479" rx="2.74647239"></rect>
                    <rect id="Container-Copy-3" fill="#FFFFFF" x="16.9285714" y="92.1038073" width="112.633663" height="17.9202454" rx="4"></rect>
                    <rect id="Label-Copy-8" fill="#DDE3E9" x="98.2751061" y="98.4148502" width="23.4653465" height="5.49294479" rx="2.74647239"></rect>
                    <rect id="Label-Copy-15" fill="#DDE3E9" x="23.9681754" y="98.4148502" width="58.6633663" height="5.49294479" rx="2.74647239"></rect>
                    <rect id="Container-Copy" fill="#FFFFFF" x="16.9285714" y="165.343071" width="237" height="36.6196319" rx="4"></rect>
                    <rect id="Label" fill="#DDE3E9" x="45.9285714" y="176.328961" width="128.461538" height="5.49294479" rx="2.74647239"></rect>
                    <rect id="Label-Copy-12" fill="#DDE3E9" x="25.9285714" y="176.328961" width="12.3076923" height="5.49294479" rx="2.74647239"></rect>
                    <rect id="Label-Copy-13" fill="#DDE3E9" x="218.236264" y="171.654114" width="27.6923077" height="5.49294479" rx="2.74647239"></rect>
                    <rect id="Label" fill="#DDE3E9" x="45.9285714" y="185.483869" width="86.227608" height="5.49294479" rx="2.74647239"></rect>
                    <rect id="Container-Copy-2" fill="#FFFFFF" x="16.9285714" y="214.428961" width="237" height="83.3680982" rx="4"></rect>
                    <rect id="Label-Copy" fill="#DDE3E9" x="44.3048091" y="233.985402" width="130.623762" height="5.49294479" rx="2.74647239"></rect>
                    <rect id="Label-Copy-4" fill="#DDE3E9" x="44.3048091" y="276.059022" width="130.623762" height="5.49294479" rx="2.74647239"></rect>
                    <rect id="Label-Copy-2" fill="#DDE3E9" x="44.3048091" y="243.14031" width="87.6789638" height="5.49294479" rx="2.74647239"></rect>
                    <rect id="Label-Copy-5" fill="#DDE3E9" x="44.3048091" y="285.21393" width="87.6789638" height="5.49294479" rx="2.74647239"></rect>
                    <path d="M47.0512814,224.440924 L85.3978186,224.440924 C86.9146534,224.440924 88.1442909,225.670561 88.1442909,227.187396 C88.1442909,228.704231 86.9146534,229.933869 85.3978186,229.933869 L47.0512814,229.933869 C45.5344466,229.933869 44.3048091,228.704231 44.3048091,227.187396 C44.3048091,225.670561 45.5344466,224.440924 47.0512814,224.440924 Z" id="Label-Copy-3" fill="#DDE3E9"></path>
                    <path d="M9.19334699,245.197441 L49.6934988,245.197441 C50.7734616,245.197441 51.6489444,246.072924 51.6489444,247.152887 C51.6489444,248.23285 50.7734616,249.108333 49.6934988,249.108333 L9.19334699,249.108333 C8.11338423,249.108333 7.23790144,248.23285 7.23790144,247.152887 C7.23790144,246.072924 8.11338423,245.197441 9.19334699,245.197441 Z" id="Label-Copy-10" fill="#DDE3E9" transform="translate(29.443423, 247.152887) rotate(-270.000000) translate(-29.443423, -247.152887) "></path>
                    <path d="M47.0512814,266.514543 L85.3978186,266.514543 C86.9146534,266.514543 88.1442909,267.744181 88.1442909,269.261016 C88.1442909,270.777851 86.9146534,272.007488 85.3978186,272.007488 L47.0512814,272.007488 C45.5344466,272.007488 44.3048091,270.777851 44.3048091,269.261016 C44.3048091,267.744181 45.5344466,266.514543 47.0512814,266.514543 Z" id="Label-Copy-6" fill="#DDE3E9"></path>
                    <ellipse id="Background" fill="#DDE3E9" cx="29.4434229" cy="226.895218" rx="5.47524752" ry="5.45398773"></ellipse>
                    <ellipse id="Indicator" fill="#FFFFFF" cx="29.4434229" cy="226.895218" rx="2.34653465" ry="2.33742331"></ellipse>
                    <ellipse id="Background-Copy" fill="#DDE3E9" cx="29.4434229" cy="268.968838" rx="5.47524752" ry="5.45398773"></ellipse>
                    <ellipse id="Indicator-Copy" fill="#FFFFFF" cx="29.4434229" cy="268.968838" rx="2.34653465" ry="2.33742331"></ellipse>
                </g>
                <g id="Image" transform="translate(444.071429, 308.702941) scale(-1, 1) translate(-444.071429, -308.702941) translate(367.571429, 225.202941)" fill-rule="nonzero">
                    <g id="Group-6" transform="translate(0.071429, -0.202941)">
                        <path d="M117.914403,114.438597 C118.731438,113.62513 152.29521,84.3728412 152.29521,84.3728412 L146.57597,81.9324389 C143.307832,80.3380427 144.157548,78.1904888 144.941901,76.2707056 C145.726254,73.7977647 151.510857,54.3721626 151.510857,54.3721626 C151.510857,54.3721626 135.921841,57.6260323 132.653704,58.4394997 C130.2026,59.2204284 129.385566,57.6260323 128.568532,55.9990974 C127.751497,54.3721626 123.666325,45.4565596 123.666325,45.4565596 C123.666325,45.4565596 106.475922,64.9472391 105.658887,65.7281678 C102.39075,68.1685701 99.0899309,65.7281678 99.9069653,62.4742981 C99.9069653,59.2204284 108.927025,20.3041469 108.927025,20.3041469 C108.927025,20.3041469 99.0899309,25.9658802 95.8217933,27.592815 C93.3706902,29.2197499 91.70394,29.2197499 90.0698712,25.9658802 C88.4031211,23.5254779 76.1149238,0 76.1149238,0 C76.1149238,0 63.859408,23.5254779 62.2253392,25.9658802 C60.5912704,29.2197499 58.9572016,29.2197499 56.4734171,27.592815 C53.2052795,25.9658802 43.3681855,20.3041469 43.3681855,20.3041469 C43.3681855,20.3041469 52.3882451,59.2204284 52.3882451,62.4742981 C53.2052795,65.7281678 49.937142,68.1685701 46.636323,65.7281678 C45.8192886,64.9147004 28.628885,45.4565596 28.628885,45.4565596 C28.628885,45.4565596 24.5437131,54.3396239 23.7266787,55.9665587 C22.9096443,57.5934936 22.0926099,59.1878897 19.6415067,58.406961 C16.3406878,57.5934936 0.784353015,54.3396239 0.784353015,54.3396239 C0.784353015,54.3396239 6.53627512,73.765226 7.35330952,76.2381669 C8.13766253,78.1904888 8.9873783,80.3055041 5.71924073,81.8999002 L0,84.3728412 C0,84.3728412 33.5310914,113.62513 34.3808072,114.438597 C36.0475573,116.065532 37.6489447,116.878999 36.0475573,121.759804 C34.3808072,126.640608 32.7467384,133.180887 32.7467384,133.180887 C32.7467384,133.180887 63.859408,126.640608 67.1602269,125.827141 C70.0035066,125.534293 73.1409186,126.640608 73.1409186,129.894478 C73.1409186,133.148348 71.2453989,166.598128 71.2453989,166.598128 L81.0498115,166.598128 C81.0498115,166.598128 79.1542918,133.180887 79.1542918,129.894478 C79.1542918,126.60807 82.2590224,125.534293 85.1676649,125.827141 C88.4358024,126.640608 119.548472,133.180887 119.548472,133.180887 C119.548472,133.180887 117.914403,126.640608 116.280334,121.759804 C114.646266,116.878999 116.280334,116.065532 117.914403,114.438597 L117.914403,114.438597 Z" id="Path" fill="#FE3146"></path>
                        <path d="M76.1149238,0 C76.1149238,0 63.859408,23.5254779 62.2253392,25.9658802 C60.5912704,29.2197499 58.9572016,29.2197499 56.4734171,27.592815 C53.2052795,25.9658802 43.3681855,20.3041469 43.3681855,20.3041469 C43.3681855,20.3041469 52.3882451,59.2204284 52.3882451,62.4742981 C53.2052795,65.7281678 49.937142,68.1685701 46.636323,65.7281678 C45.8192886,64.9147004 28.628885,45.4565596 28.628885,45.4565596 C28.628885,45.4565596 24.5437131,54.3396239 23.7266787,55.9665587 C22.9096443,57.5934936 22.0926099,59.1878897 19.6415067,58.406961 C16.3406878,57.5934936 0.784353015,54.3396239 0.784353015,54.3396239 C0.784353015,54.3396239 6.53627512,73.765226 7.35330952,76.2381669 C8.13766253,78.1904888 8.9873783,80.3055041 5.71924073,81.8999002 L0,84.3728412 C0,84.3728412 33.5310914,113.62513 34.3808072,114.438597 C36.0475573,116.065532 37.6489447,116.878999 36.0475573,121.759804 C34.3808072,126.640608 32.7467384,133.180887 32.7467384,133.180887 C32.7467384,133.180887 63.859408,126.640608 67.1602269,125.827141 C70.0035066,125.534293 73.1409186,126.640608 73.1409186,129.894478 C73.1409186,133.148348 71.2453989,166.598128 71.2453989,166.598128 L76.1476052,166.598128 C76.1476052,166.598128 76.1149238,0 76.1149238,0 Z" id="Path" fill="#D6293B"></path>
                    </g>
                </g>
                <g id="Group-12" transform="translate(14.500000, 163.000000)">
                    <circle id="Background" fill="#1C578A" cx="168.5" cy="222.5" r="136.5"></circle>
                    <g id="Human">
                        <g id="Head/Front" transform="translate(75.700000, 0.000000)">
                            <path d="M82.35,104.886018 C97.7790662,104.886018 103.390421,86.417484 112.156135,76.2824537 C118.427824,69.0310472 129.131657,71.1932932 132.3,61.041482 C140.267082,35.5138407 118.943247,17.5469484 91.125,17.5469484 C63.3067534,17.5469484 44.55,33.3044487 40.5,56.9921862 C36.45,80.6799237 54.5317534,104.886018 82.35,104.886018 Z" id="Hair-Back" fill="#191847"></path>
                            <g id="Head" transform="translate(72.900000, 41.842723)" fill="#D4A181">
                                <path d="M51.4935109,12.3286653 C59.3165053,26.9076443 58.3869302,63.8884333 48.2764069,66.4941035 C44.2443363,67.5332432 35.6548184,64.9877602 26.9127015,59.7193966 L32.4,98.5328638 L0,98.5328638 L11.1537178,46.5531618 C4.93323307,39.2526934 0.72312024,30.3059244 1.42664805,20.2808356 C3.4537458,-8.60478129 43.6705164,-2.2503136 51.4935109,12.3286653 Z" id="Head-[skin]"></path>
                            </g>
                            <path d="M126.337267,54.2531758 C120.141096,55.4161388 107.662163,61.3305726 97.7125337,69.8145365 C96.5358219,69.1917932 95.186811,68.8380282 93.7530023,68.8380282 C89.1627195,68.8380282 85.4415601,72.4638911 85.4415601,76.9366197 C85.4415601,78.7624833 86.0616717,80.4472212 87.1078767,81.8017839 C85.1376664,85.0473901 83.7938816,88.4568799 83.3533724,91.9618996 C76.5274973,91.9618996 51.6153334,66.1384977 76.4326667,41.842723 C101.25,17.5469484 137.114119,52.2304622 126.337267,54.2531758 Z" id="Hair" fill="#191847"></path>
                        </g>
                        <g id="Bottom/Skinny-Jeans-1" transform="translate(112.000000, 252.406103)">
                            <path d="M97.7877985,0 L106.510324,97.5312613 C91.2986631,103.385179 74.7740496,106.593897 57.5,106.593897 C51.8396137,106.593897 46.2596982,106.24936 40.7800807,105.580114 L20.05,0 L97.7877985,0 Z" id="Combined-Shape" fill="#1A2838"></path>
                            <path d="M6.9,0 C-0.207157126,21.3000329 -1.55715713,49.5009124 2.85,84.6026387 L70.1749291,84.6026387 L88.6877985,0 L6.9,0 Z" id="Bottom" fill="#26374A"></path>
                        </g>
                        <g id="Body/Long-Sleeve-1" transform="translate(0.700000, 111.680751)">
                            <path d="M66.4506397,103.65529 L90.3615406,107.127177 C64.695308,162.804352 50.9353365,192.249667 49.081626,195.463122 C44.9107773,202.693395 49.8159754,215.286814 51.7335393,221.95347 C42.0427016,224.751399 45.1376272,209.7814 32.88418,213.515205 C31.1895772,214.031575 29.5398521,214.647068 27.9217787,215.287839 L27.2762061,215.545321 C26.8469079,215.71764 26.4197351,215.891057 25.9944369,216.064171 L25.3578642,216.323439 C25.146121,216.40967 24.9348151,216.495649 24.7239152,216.581203 L24.0924018,216.836411 C23.5671033,217.047729 23.0441459,217.25529 22.5230399,217.456361 L21.89857,217.694356 C15.1424266,220.235089 8.66604308,221.494013 1.39320139,215.462207 C0.0313373599,214.332731 -1.11586615,210.63937 3.21276439,208.487418 C6.2577142,206.973639 9.70522603,205.105157 13.1406216,203.121568 L13.9989781,202.623411 C22.4322819,197.704017 30.5835233,192.209652 32.2919516,189.699939 C35.6483673,184.769303 47.0345967,156.087753 66.4506397,103.65529 L66.4506397,103.65529 Z M250.984478,118.602729 L291.736416,153.14545 C303.167606,157.10335 312.628147,161.694726 320.118039,166.91958 C320.277277,167.086419 320.43876,167.268117 320.594771,167.459644 L320.726975,167.626099 C320.748726,167.654203 320.77032,167.682479 320.791734,167.710911 L320.917894,167.883267 C322.236826,169.739265 322.637685,172.116426 316.223508,171.169722 C315.474311,171.059144 314.720804,170.951316 313.969904,170.849181 L313.220129,170.749053 C306.609316,169.883279 300.381805,169.538323 299.305029,171.743211 C298.065721,174.280911 302.481506,177.72807 300.099097,181.102435 C298.510825,183.352011 292.195355,176.9913 281.152687,162.0203 L239.84674,141.409196 L250.984478,118.602729 Z" id="Arms-[skin]" fill="#D4A181"></path>
                            <path d="M160.023164,11.4329411 L174.355987,5.26144089 C198.75274,53.5168317 232.845861,99.2888159 286.311268,135.792486 L275.835966,158.152741 C229.730561,136.165011 186.469802,119.735928 166.237211,82.4598247 C159.44663,69.9490008 160.922443,27.0238462 160.023164,11.4329411 Z" id="Coat-Back" fill="#D6293B" transform="translate(223.167216, 81.707091) rotate(5.000000) translate(-223.167216, -81.707091) "></path>
                            <path d="M115.5,147.474178 C157.94174,151.973396 191.348045,151.973396 215.718915,147.474178 C218.738303,146.916756 219.214651,141.862379 217.814413,138.432055 C196.009076,85.0129849 181.056408,38.4018434 181.056408,1.29816073 C177.055403,3.31491364 170.053267,3.61714928 160.05,2.20486762 C133.166372,40.4414056 120.808926,84.3134582 115.5,147.474178 Z" id="Shirt" fill="#DDE3E9"></path>
                        </g>
                    </g>
                    <g id="Group-11" transform="translate(32.500000, 96.893363)" fill="#FE3146">
                        <path d="M132.964201,14.1066365 C135.135137,26.8582212 141.198375,172.72104 157.814799,260.406595 C150.773923,261.524957 143.551616,262.106637 136.193297,262.106637 C100.562295,262.106637 68.1204325,248.467621 43.8148117,226.131142 C62.8167208,145.680444 99.1687791,61.5023523 119.713638,14.1066365 L119.713638,14.1066365 Z" id="Combined-Shape"></path>
                        <path d="M107.834789,6 C52.8590738,52.7896884 21.5808107,118.929158 14,204.41841 L40.4124749,207.378465 C54.305754,134.403178 78.8024884,91.4932909 113.902678,78.6488031 L107.834789,6 Z" id="Clothes-Front" transform="translate(63.951339, 106.689232) rotate(8.000000) translate(-63.951339, -106.689232) "></path>
                    </g>
                </g>
            </g>
        </g>
    </g>
</svg>